HIERARCHY
ROOT Hips
{
  OFFSET -187.679 86.5976 -156.378
  CHANNELS 6 Xposition Yposition Zposition Zrotation Xrotation Yrotation
  JOINT LeftUpLeg
  {
    OFFSET 8.64259 1.95398 -2.38835
    CHANNELS 3 Zrotation Xrotation Yrotation
    JOINT LeftLeg
    {
      OFFSET 43.7702 0 0
      CHANNELS 3 Zrotation Xrotation Yrotation
      JOINT LeftFoot
      {
        OFFSET 40.6238 0 0
        CHANNELS 3 Zrotation Xrotation Yrotation
        JOINT LeftToeBase
        {
          OFFSET 12.7242 0 0
          CHANNELS 3 Zrotation Xrotation Yrotation
          End Site
          {
            OFFSET 0 0 0
          }
        }
      }
    }
  }
  JOINT RightUpLeg
  {
    OFFSET -8.2249 1.95398 -2.59336
    CHANNELS 3 Zrotation Xrotation Yrotation
    JOINT RightLeg
    {
      OFFSET 43.5653 0 0
      CHANNELS 3 Zrotation Xrotation Yrotation
      JOINT RightFoot
      {
        OFFSET 40.6238 0 0
        CHANNELS 3 Zrotation Xrotation Yrotation
        JOINT RightToeBase
        {
          OFFSET 12.7242 0 0
          CHANNELS 3 Zrotation Xrotation Yrotation
          End Site
          {
            OFFSET 0 0 0
          }
        }
      }
    }
  }
  JOINT Spine
  {
    OFFSET 0.165834 0.87714 6.61349
    CHANNELS 3 Zrotation Xrotation Yrotation
    JOINT Spine1
    {
      OFFSET 7.38963 1.71661e-005 0
      CHANNELS 3 Zrotation Xrotation Yrotation
      JOINT Spine2
      {
        OFFSET 11.9445 1.14441e-005 0
        CHANNELS 3 Zrotation Xrotation Yrotation
        JOINT Spine3
        {
          OFFSET 14.7254 4.19617e-005 0
          CHANNELS 3 Zrotation Xrotation Yrotation
          JOINT Spine4
          {
            OFFSET 10.9679 0 0
            CHANNELS 3 Zrotation Xrotation Yrotation
            JOINT RightShoulder
            {
              OFFSET 2.46616 -1.6653 3.69651
              CHANNELS 3 Zrotation Xrotation Yrotation
              JOINT RightArm
              {
                OFFSET 13.0012 0 0
                CHANNELS 3 Zrotation Xrotation Yrotation
                JOINT RightForeArm
                {
                  OFFSET 28.7848 1.52588e-005 0
                  CHANNELS 3 Zrotation Xrotation Yrotation
                  JOINT RightHand
                  {
                    OFFSET 26.5688 1.52588e-005 0
                    CHANNELS 3 Zrotation Xrotation Yrotation
                    End Site
                    {
                      OFFSET 0 0 0
                    }
                  }
                }
              }
            }
            JOINT LeftShoulder
            {
              OFFSET 2.38034 -1.29275 -3.7523
              CHANNELS 3 Zrotation Xrotation Yrotation
              JOINT LeftArm
              {
                OFFSET 16.3182 6.10352e-005 0
                CHANNELS 3 Zrotation Xrotation Yrotation
                JOINT LeftForeArm
                {
                  OFFSET 27.0901 0 0
                  CHANNELS 3 Zrotation Xrotation Yrotation
                  JOINT LeftHand
                  {
                    OFFSET 24.5451 1.52588e-005 0
                    CHANNELS 3 Zrotation Xrotation Yrotation
                    End Site
                    {
                      OFFSET 0 0 0
                    }
                  }
                }
              }
            }
            JOINT Neck
            {
              OFFSET 5.0226 -0.0266342 0
              CHANNELS 3 Zrotation Xrotation Yrotation
              JOINT Head
              {
                OFFSET 6.69363 2.86102e-005 0
                CHANNELS 3 Zrotation Xrotation Yrotation
                End Site
                {
                  OFFSET 0 0 0
                }
              }
            }
          }
        }
      }
    }
  }
}
MOTION
Frames:	9
Frame Time:	0.0416667
22.846 97.5828 -42.7219 -129.877 -75.2694 -134.358 -176.674 16.7448 81.7861 -31.8972 9.14822 2.52897 67.0512 2.87461 -0.632837 6.04169 -10.6986 2.14888 166.604 -14.8109 76.997 -41.6096 -14.4385 -4.59941 62.4933 -1.90467 -0.855046 38.6367 0.326346 5.92417 1.3331 7.87565 -89.6659 11.1202 2.80865 0.392232 -0.547771 2.8232 0.268133 -23.1036 2.56084 1.21874 -3.09092 2.56084 1.21873 84.0692 -48.5073 -110.11 21.6642 -20.0683 -19.6379 -22.3588 -19.977 -26.0481 -7.68344 -0.0208361 -4.99969 -87.9466 -49.6762 81.9655 -34.7452 12.2905 12.8026 8.44267 -11.0019 -9.6577 -5.78622 -0.136052 -2.533 -3.02155 1.88528 5.56214 6.01163 1.03318 -2.60472 
24.0467 97.8495 -35.1693 -131.397 -74.1274 -137.982 -177.371 12.2163 77.1456 -34.9835 6.67758 3.46066 71.7228 4.44486 0.775682 6.50058 -10.1232 1.54539 171.552 -0.920546 76.4504 -64.962 -12.8713 -8.15187 54.2407 0.576159 0.844987 26.2387 -1.03383 1.98331 1.07701 7.96649 -89.4479 10.9318 2.39969 0.871085 -0.737143 2.4357 0.76456 -23.2833 2.02694 1.55221 -3.27068 2.02695 1.5522 84.5092 -48.3705 -109.485 25.6746 -21.6137 -16.4278 -18.3911 -20.4561 -19.0458 -7.9894 0.0121232 -5.5132 -88.0815 -49.4926 81.7294 -27.2713 13.3005 2.25139 8.97114 -9.69231 -13.0398 -4.05924 -0.105802 -2.8117 -4.50302 2.83085 7.68342 7.11285 1.8 -2.62614 
24.7141 98.5414 -29.2314 -140.111 -75.7563 -146.023 -177.788 7.52755 76.0769 -34.5304 8.54948 4.78309 74.2516 5.47204 0.907345 7.2829 -10.1143 2.16303 176.241 9.13018 80.6631 -68.8176 -4.92048 -7.39265 63.756 -2.41197 -0.251016 27.6663 -1.03528 2.88817 0.618271 8.03737 -89.5776 10.7963 1.42606 0.705853 -0.874054 1.45574 0.642391 -23.4122 1.148 1.10184 -3.39957 1.148 1.10183 84.4642 -49.0677 -109.317 26.4669 -21.8959 -11.8453 -16.4487 -19.9535 -15.6853 -7.94481 0.00472249 -5.40559 -87.5534 -47.7903 82.2176 -19.6012 8.27645 -7.76088 11.1303 -5.30834 -22.349 -1.92985 -0.081478 -2.59623 -5.57767 4.12343 8.86149 7.36854 3.16664 -1.28403 
24.8711 99.2968 -24.0029 -160.452 -79.0068 -164.691 -177.886 3.49411 77.3124 -33.3652 13.8648 6.5975 75.8002 6.51381 1.22951 7.96945 -10.3257 3.09849 179.341 15.4843 85.4643 -54.9223 0.137497 -6.18159 66.4574 -3.44836 0.0683616 27.2992 -0.647744 1.40489 0.17215 8.09199 -89.9227 10.6907 0.378515 0.119522 -0.98021 0.383412 0.102742 -23.5157 0.32509 0.227758 -3.50306 0.325098 0.227758 85.1614 -48.9304 -108.304 27.0458 -19.6654 -5.78081 -17.3616 -19.3257 -16.7849 -7.64842 -0.00477117 -5.26602 -87.5612 -45.3814 81.7508 -15.3201 2.00698 -17.0285 13.5334 -1.95861 -29.2355 -0.305962 -0.0609766 -2.64943 -5.51067 4.35836 8.89435 8.25238 3.49577 -0.00055601 
25.0911 99.5219 -18.5658 167.164 -80.1302 163.121 -177.203 -0.526834 78.7637 -32.2112 21.3523 6.80079 77.4372 8.52538 2.35519 5.96882 -9.99355 0.902269 -178.03 17.885 87.0236 -36.1652 -9.91503 -6.79594 63.5131 -2.78184 -0.625178 28.4855 -0.531051 1.68243 -0.277014 8.10412 -89.9912 10.6659 -0.547585 0.067409 -1.00494 -0.544087 0.0914342 -23.541 -0.542533 -0.100288 -3.52836 -0.542529 -0.100291 85.4813 -49.1181 -107.756 27.9981 -18.6485 -1.52146 -16.9226 -18.0596 -15.9818 -7.98908 0.0114574 -5.49719 -87.4895 -43.139 81.4243 -12.9855 -2.82854 -24.2553 14.3666 -0.728642 -31.2877 4.1708 0.0522174 -1.75692 -4.84191 4.28944 7.13277 8.15616 3.6263 0.850367 
25.6395 98.9906 -12.4546 139.373 -77.5256 135.065 -175.468 -4.67422 81.1867 -32.7562 29.7196 6.34061 79.8531 11.2118 2.86081 6.2598 -9.93025 1.02365 -178.771 17.2057 86.7079 -20.8513 -30.4803 -5.62967 61.8096 -1.9153 0.775456 32.1728 0.181209 1.32571 -0.636548 8.13182 -89.9917 10.6114 -1.26388 0.13067 -1.05895 -1.25691 0.186165 -23.5988 -1.24472 -0.255283 -3.58612 -1.24472 -0.255288 85.5064 -49.9847 -107.446 28.7333 -18.2677 1.17482 -16.6173 -16.6717 -15.5403 -6.65568 0.0556883 -6.4691 -88.2044 -42.2534 80.0726 -13.4584 -4.41455 -27.1985 13.6763 -1.78394 -32.8427 3.26062 -0.0334351 -3.0825 -4.39397 3.63217 5.48198 8.24322 3.20401 1.78728 
26.4438 98.2172 -5.41154 123.03 -72.2922 118.325 -173.77 -9.3567 84.3082 -33.8279 38.1313 7.23977 81.953 13.6475 3.10927 5.74152 -10.3534 1.33506 -178.218 15.9617 87.2368 -20.1844 -36.8855 -6.50653 59.7091 -1.16913 1.45037 35.1152 0.509869 1.93012 -0.997662 8.07119 -89.9539 10.7348 -1.96539 0.271491 -0.934707 -1.95153 0.357754 -23.4817 -1.95608 -0.331979 -3.46909 -1.95608 -0.331977 85.4216 -51.0664 -107.239 29.352 -16.7511 2.15962 -17.12 -17.4532 -15.7898 -7.81318 0.0103369 -5.43929 -88.9589 -42.5504 78.9107 -15.6591 -1.69494 -24.9102 14.7018 -0.437298 -32.9112 3.56944 0.0362292 -1.82412 -4.31515 3.1048 3.57396 7.46925 2.93956 2.68453 
27.8797 98.1211 2.32392 113.882 -65.6199 110.077 -172.504 -13.9153 87.9533 -36.0636 43.786 11.9807 81.4572 12.9861 2.88595 7.39822 -8.96542 0.282076 -177.474 15.9252 89.068 -30.7014 -32.1139 -8.53033 57.7325 -0.8969 3.55175 32.51 1.13483 -2.14726 -1.08929 7.86818 -90.0762 11.1393 -2.20339 0.0631971 -0.529755 -2.19849 0.160152 -23.0791 -2.12049 -0.60225 -3.06642 -2.12049 -0.602241 85.4656 -51.4843 -107.046 31.1114 -17.3328 2.60219 -16.2319 -15.9294 -14.2267 -5.786 0.0535207 -6.62406 -87.4322 -42.9647 81.484 -21.1517 9.85038 -21.2873 13.7412 -0.0818972 -24.705 0.525826 -0.0401485 -2.93745 -4.8958 1.77037 2.00307 6.90034 1.81308 3.04437 
29.7078 98.944 9.12667 108.129 -56.1393 107.227 -171.728 -13.5692 93.4962 -45.082 46.4385 18.2263 75.117 9.15917 3.90539 13.6401 -4.30841 -3.67071 179.478 10.8493 91.3477 -30.2117 -23.9531 -4.99406 61.9232 -1.87256 2.18255 29.8159 -0.558924 2.59466 -0.997643 7.77709 -90.5128 11.3127 -2.22418 -0.7995 -0.356529 -2.25721 -0.700797 -22.9014 -1.88107 -1.43114 -2.88872 -1.88107 -1.43115 86.256 -49.9315 -106.33 30.9436 -16.8147 1.03838 -16.312 -17.389 -14.3284 -9.72954 -0.074105 -4.3103 -88.4116 -43.9666 80.1095 -28.1626 20.8666 -14.3498 9.39063 -4.31454 -9.70002 -2.47545 -0.0880042 -2.79489 -4.69423 -0.10959 -0.273151 6.49371 0.244712 4.06593 
